# xmcd
#
# Track frame offsets:
#      150
#      30330
#      59365
#      72279
#      82392
#      96225
#      109912
#      121291
#      134133
#      147367
#      161238
#      172276
#      186213
#      198299
#      213312
#      225389
# 
# Disc length: 3133 seconds
#
# Revision: 2
# Processed by: cddbd v1.4PL0 Copyright (c) Steve Scherf et al.
#
# Submitted via: FreeRIP 1.21
#
DISCID=f50c3b10
DTITLE=Ray Charles - Late in Evening
DYEAR=02
DGENRE=Blues
TTITLE0=Georgia on my mind
TTITLE1=What'd I say
TTITLE2=Baby won't you please come home
TTITLE3=I'm movin on
TTITLE4=Blues is my middle name
TTITLE5=I got a woman
TTITLE6=She's on the Ball
TTITLE7=Heartbreaker
TTITLE8=I'm going down on the river
TTITLE9=Late in the evening blues
TTITLE10=You be My baby
TTITLE11=This love of mine
TTITLE12=Tell me how do you feel
TTITLE13=Talkin - 'bout you
TTITLE14=Can't you see darling
TTITLE15=Ain't that fine
EXTD=
EXTT0=
EXTT1=
EXTT2=
EXTT3=
EXTT4=
EXTT5=
EXTT6=
EXTT7=
EXTT8=
EXTT9=
EXTT10=
EXTT11=
EXTT12=
EXTT13=
EXTT14=
EXTT15=
PLAYORDER=
